<svg width="439" height="37" viewBox="0 0 439 37" fill="none" xmlns="http://www.w3.org/2000/svg">
    <path d="M0.100027 18.8128C0.0120269 14.4348 3.92803 10.7168 8.48203 10.8048C11.54 10.8048 13.938 12.3228 15.016 14.9848L11.936 16.8108C11.166 15.1168 9.95603 14.2808 8.26203 14.2808C5.77603 14.2808 3.97203 16.1288 3.97203 18.6368C3.97203 20.9028 5.42403 22.3768 7.69003 22.3768C9.20803 22.3768 10.462 21.6728 11.584 20.1768L14.246 22.2668C12.684 24.5548 10.242 25.8528 7.40403 25.8528C3.24603 25.9188 0.0340269 22.8388 0.100027 18.8128Z" fill="white"/>
    <path d="M25.2599 20.3748L28.2959 25.5888H24.2039L21.4979 21.0788H20.0239L19.2319 25.5888H15.4479L17.9999 11.0688H23.0599C26.3599 11.0688 28.5159 12.9168 28.5159 15.6888C28.5159 17.7348 27.2839 19.4728 25.2599 20.3748ZM21.2119 14.3688L20.5959 17.7788H22.7299C23.896 17.7788 24.6439 17.0968 24.6439 16.0188C24.6439 14.9848 24.0499 14.3688 23.0159 14.3688H21.2119Z" fill="white"/>
    <path d="M43.8321 11.0688L37.2761 20.1108L36.3081 25.5888H32.5241L33.5141 19.9568L30.0821 11.0688H33.8441L35.9121 16.1508L39.4761 11.0688H43.8321Z" fill="white"/>
    <path d="M42.862 25.5888L45.414 11.0688H50.474C52.146 11.0688 53.466 11.4868 54.456 12.3448C55.446 13.2028 55.93 14.3468 55.93 15.7768C55.93 18.9448 53.334 21.0788 49.506 21.0788H47.438L46.646 25.5888H42.862ZM48.01 17.7788H50.144C51.31 17.7788 52.058 17.0968 52.058 16.0188C52.058 14.9848 51.464 14.3688 50.43 14.3688H48.626L48.01 17.7788Z" fill="white"/>
    <path d="M59.4782 25.5888L61.4362 14.4788H57.0802L57.6742 11.0688H70.1702L69.5762 14.4788H65.2202L63.2622 25.5888H59.4782Z" fill="white"/>
    <path d="M69.8598 18.8128C69.7718 14.4128 73.7098 10.7388 78.1978 10.8048C82.3118 10.7388 85.5018 13.8628 85.4358 17.8448C85.5238 22.2448 81.5858 25.9188 77.0978 25.8528C72.9838 25.9188 69.7938 22.7948 69.8598 18.8128ZM81.5638 18.0208C81.5638 15.7548 80.0678 14.2808 77.9338 14.2808C75.5578 14.2808 73.7318 16.1288 73.7318 18.6368C73.7318 20.9028 75.2278 22.3768 77.3618 22.3768C79.7378 22.3768 81.5638 20.5288 81.5638 18.0208Z" fill="white"/>
    <path d="M253.528 25.5888L256.08 11.0688H259.864L257.906 22.1788H263.912L263.318 25.5888H253.528Z" fill="white"/>
    <path d="M265.551 18.8128C265.463 14.4128 269.401 10.7388 273.889 10.8048C278.003 10.7388 281.193 13.8628 281.127 17.8448C281.215 22.2448 277.277 25.9188 272.789 25.8528C268.675 25.9188 265.485 22.7948 265.551 18.8128ZM277.255 18.0208C277.255 15.7548 275.759 14.2808 273.625 14.2808C271.249 14.2808 269.423 16.1288 269.423 18.6368C269.423 20.9028 270.919 22.3768 273.053 22.3768C275.429 22.3768 277.255 20.5288 277.255 18.0208Z" fill="white"/>
    <path d="M282.631 18.8128C282.543 14.4348 286.459 10.7168 291.013 10.8048C294.071 10.8048 296.469 12.3228 297.547 14.9848L294.467 16.8108C293.697 15.1168 292.487 14.2808 290.793 14.2808C288.307 14.2808 286.503 16.1288 286.503 18.6368C286.503 20.9028 287.955 22.3768 290.221 22.3768C291.739 22.3768 292.993 21.6728 294.115 20.1768L296.777 22.2668C295.215 24.5548 292.773 25.8528 289.935 25.8528C285.777 25.9188 282.565 22.8388 282.631 18.8128Z" fill="white"/>
    <path d="M306.828 25.5888L306.498 24.3788H301.394L300.646 25.5888H296.378L305.596 10.8048H306.806L310.788 25.5888H306.828ZM305.706 21.3428L305.068 18.1088L303.264 21.3428H305.706Z" fill="white"/>
    <path d="M312.288 25.5888L314.84 11.0688H318.624L316.666 22.1788H322.672L322.078 25.5888H312.288Z" fill="white"/>
    <path d="M329.132 25.5888L331.684 11.0688H336.744C338.416 11.0688 339.736 11.4868 340.726 12.3448C341.716 13.2028 342.2 14.3468 342.2 15.7768C342.2 18.9448 339.604 21.0788 335.776 21.0788H333.708L332.916 25.5888H329.132ZM334.28 17.7788H336.414C337.58 17.7788 338.328 17.0968 338.328 16.0188C338.328 14.9848 337.734 14.3688 336.7 14.3688H334.896L334.28 17.7788Z" fill="white"/>
    <path d="M349.926 25.5888L349.596 24.3788H344.492L343.744 25.5888H339.476L348.694 10.8048H349.904L353.886 25.5888H349.926ZM348.804 21.3428L348.166 18.1088L346.362 21.3428H348.804Z" fill="white"/>
    <path d="M368.322 11.0688L361.766 20.1108L360.798 25.5888H357.014L358.004 19.9568L354.572 11.0688H358.334L360.402 16.1508L363.966 11.0688H368.322Z" fill="white"/>
    <path d="M383.522 10.8048H384.732L382.136 25.5888H378.352L379.364 19.8468L376.086 23.0148H374.876L372.258 19.1868L371.136 25.5888H367.352L369.948 10.8048H371.158L376.02 18.3508L383.522 10.8048Z" fill="white"/>
    <path d="M385.034 25.5888L387.586 11.0688H397.662L397.068 14.4788H390.776L390.424 16.4808H394.912L394.34 19.6488H389.852L389.412 22.1788H395.968L395.374 25.5888H385.034Z" fill="white"/>
    <path d="M409.412 11.0688H413.196L410.6 25.8528H409.39L402.9 17.9328L401.558 25.5888H397.774L400.37 10.8048H401.58L408.092 18.5708L409.412 11.0688Z" fill="white"/>
    <path d="M416.668 25.5888L418.626 14.4788H414.27L414.864 11.0688H427.36L426.766 14.4788H422.41L420.452 25.5888H416.668Z" fill="white"/>
    <path d="M426.081 22.2008L428.831 20.4188C429.777 21.8048 430.877 22.4868 432.131 22.4868C433.099 22.4868 433.671 22.1128 433.671 21.4308C433.671 20.9028 433.297 20.5288 432.241 20.0008L430.789 19.2748C428.919 18.3288 427.841 17.1408 427.841 15.3148C427.841 12.7188 430.085 10.8048 433.121 10.8048C435.299 10.8048 436.971 11.8168 438.137 13.8188L435.365 15.6888C434.595 14.6328 433.869 14.1708 432.901 14.1708C432.087 14.1708 431.603 14.5228 431.603 15.1168C431.603 15.6668 431.999 16.0408 432.791 16.4148L434.397 17.1848C436.443 18.1528 437.411 19.4068 437.411 21.0568C437.411 23.7628 435.079 25.8528 431.999 25.8528C429.425 25.8528 427.335 24.5548 426.081 22.2008Z" fill="white"/>
    <path d="M112.496 36.3276V33.9114C112.496 32.9871 111.933 32.3819 110.967 32.3819C110.484 32.3819 109.958 32.5414 109.597 33.0669C109.315 32.6258 108.912 32.3819 108.307 32.3819C107.903 32.3819 107.5 32.5038 107.181 32.9449V32.4616H106.336V36.3276H107.181V34.1929C107.181 33.5079 107.542 33.1841 108.105 33.1841C108.668 33.1841 108.949 33.5454 108.949 34.1929V36.3276H109.794V34.1929C109.794 33.5079 110.197 33.1841 110.718 33.1841C111.281 33.1841 111.563 33.5454 111.563 34.1929V36.3276H112.496ZM125.023 32.4616H123.653V31.2934H122.809V32.4616H122.044V33.2264H122.809V34.9998C122.809 35.8866 123.17 36.4073 124.136 36.4073C124.498 36.4073 124.901 36.2854 125.183 36.1258L124.939 35.3986C124.695 35.5581 124.413 35.6004 124.211 35.6004C123.808 35.6004 123.648 35.3564 123.648 34.9576V33.2264H125.018V32.4616H125.023ZM132.192 32.3772C131.709 32.3772 131.385 32.6211 131.183 32.9402V32.4569H130.339V36.3229H131.183V34.1459C131.183 33.5032 131.465 33.1372 131.99 33.1372C132.15 33.1372 132.352 33.1795 132.516 33.217L132.76 32.41C132.591 32.3772 132.352 32.3772 132.192 32.3772ZM121.359 32.7807C120.955 32.4992 120.392 32.3772 119.787 32.3772C118.821 32.3772 118.178 32.8604 118.178 33.6252C118.178 34.2679 118.661 34.6339 119.506 34.7512L119.909 34.7934C120.35 34.8732 120.594 34.9951 120.594 35.1969C120.594 35.4784 120.27 35.6801 119.707 35.6801C119.144 35.6801 118.699 35.4784 118.417 35.2766L118.014 35.9194C118.455 36.2431 119.06 36.4027 119.665 36.4027C120.791 36.4027 121.439 35.8772 121.439 35.1547C121.439 34.4697 120.913 34.1084 120.111 33.9864L119.707 33.9442C119.346 33.902 119.065 33.8222 119.065 33.5829C119.065 33.3014 119.346 33.1419 119.792 33.1419C120.275 33.1419 120.758 33.3437 121.002 33.4656L121.359 32.7807ZM143.827 32.3772C143.344 32.3772 143.02 32.6211 142.819 32.9402V32.4569H141.974V36.3229H142.819V34.1459C142.819 33.5032 143.1 33.1372 143.626 33.1372C143.785 33.1372 143.987 33.1795 144.151 33.217L144.395 32.4194C144.231 32.3772 143.992 32.3772 143.827 32.3772ZM133.037 34.3946C133.037 35.5628 133.843 36.4073 135.091 36.4073C135.654 36.4073 136.058 36.2854 136.461 35.9663L136.058 35.2813C135.734 35.5253 135.415 35.6426 135.049 35.6426C134.364 35.6426 133.881 35.1593 133.881 34.3946C133.881 33.6674 134.364 33.1841 135.049 33.1466C135.411 33.1466 135.734 33.2686 136.058 33.5079L136.461 32.8229C136.058 32.4992 135.654 32.3819 135.091 32.3819C133.843 32.3772 133.037 33.2264 133.037 34.3946ZM140.848 34.3946V32.4616H140.004V32.9449C139.722 32.5836 139.319 32.3819 138.793 32.3819C137.705 32.3819 136.86 33.2264 136.86 34.3946C136.86 35.5628 137.705 36.4073 138.793 36.4073C139.356 36.4073 139.76 36.2056 140.004 35.8443V36.3276H140.848V34.3946ZM137.747 34.3946C137.747 33.7096 138.188 33.1466 138.915 33.1466C139.6 33.1466 140.083 33.6721 140.083 34.3946C140.083 35.0796 139.6 35.6426 138.915 35.6426C138.193 35.6004 137.747 35.0749 137.747 34.3946ZM127.641 32.3772C126.515 32.3772 125.708 33.1841 125.708 34.3899C125.708 35.6004 126.515 36.4027 127.683 36.4027C128.246 36.4027 128.809 36.2431 129.255 35.8772L128.852 35.272C128.528 35.5159 128.124 35.6754 127.726 35.6754C127.2 35.6754 126.679 35.4315 126.557 34.7512H129.415C129.415 34.6292 129.415 34.5494 129.415 34.4274C129.452 33.1841 128.725 32.3772 127.641 32.3772ZM127.641 33.1044C128.167 33.1044 128.528 33.4281 128.608 34.0287H126.595C126.675 33.5079 127.036 33.1044 127.641 33.1044ZM148.622 34.3946V30.9321H147.778V32.9449C147.496 32.5836 147.093 32.3819 146.567 32.3819C145.479 32.3819 144.634 33.2264 144.634 34.3946C144.634 35.5628 145.479 36.4073 146.567 36.4073C147.13 36.4073 147.534 36.2056 147.778 35.8443V36.3276H148.622V34.3946ZM145.521 34.3946C145.521 33.7096 145.962 33.1466 146.689 33.1466C147.374 33.1466 147.858 33.6721 147.858 34.3946C147.858 35.0796 147.374 35.6426 146.689 35.6426C145.962 35.6004 145.521 35.0749 145.521 34.3946ZM117.249 34.3946V32.4616H116.404V32.9449C116.123 32.5836 115.719 32.3819 115.194 32.3819C114.106 32.3819 113.261 33.2264 113.261 34.3946C113.261 35.5628 114.106 36.4073 115.194 36.4073C115.757 36.4073 116.16 36.2056 116.404 35.8443V36.3276H117.249V34.3946ZM114.11 34.3946C114.11 33.7096 114.551 33.1466 115.278 33.1466C115.963 33.1466 116.447 33.6721 116.447 34.3946C116.447 35.0796 115.963 35.6426 115.278 35.6426C114.551 35.6004 114.11 35.0749 114.11 34.3946Z" fill="white"/>
    <path d="M133.766 3.10059H121.08V25.8929H133.766V3.10059Z" fill="#FF5A00"/>
    <path d="M121.922 14.4973C121.922 9.86664 124.099 5.75671 127.44 3.10121C124.981 1.16823 121.88 0 118.497 0C110.484 0 104 6.48393 104 14.4973C104 22.5108 110.484 28.9947 118.497 28.9947C121.88 28.9947 124.981 27.8265 127.44 25.8935C124.095 23.2755 121.922 19.1281 121.922 14.4973Z" fill="#EB001B"/>
    <path d="M150.879 14.4973C150.879 22.5108 144.395 28.9947 136.382 28.9947C132.999 28.9947 129.898 27.8265 127.44 25.8935C130.822 23.2333 132.957 19.1281 132.957 14.4973C132.957 9.86664 130.78 5.75671 127.44 3.10121C129.893 1.16823 132.995 0 136.377 0C144.395 0 150.879 6.52615 150.879 14.4973Z" fill="#F79E1B"/>
    <path d="M212.005 7.49951C207.317 7.49951 203.127 9.92968 203.127 14.4186C203.127 19.5671 210.557 19.9226 210.557 22.5094C210.557 23.5986 209.31 24.5735 207.177 24.5735C204.153 24.5735 201.892 23.2113 201.892 23.2113L200.924 27.7419C200.924 27.7419 203.529 28.8925 206.986 28.8925C212.112 28.8925 216.145 26.3434 216.145 21.7772C216.145 16.3365 208.684 15.9915 208.684 13.5911C208.684 12.7379 209.709 11.8034 211.834 11.8034C214.233 11.8034 216.189 12.7941 216.189 12.7941L217.136 8.41884C217.136 8.41884 215.007 7.49951 212.004 7.49951H212.005ZM169.114 7.82997L169 8.49022C169 8.49022 170.972 8.85107 172.749 9.57147C175.036 10.3969 175.199 10.8781 175.584 12.3704L179.781 28.5515H185.408L194.077 7.82997H188.463L182.893 21.9186L180.62 9.97594C180.412 8.60918 179.356 7.82931 178.064 7.82931H169.114L169.114 7.82997ZM196.335 7.82997L191.931 28.5515H197.284L201.672 7.82997H196.335ZM226.192 7.82997C224.901 7.82997 224.217 8.52128 223.715 9.72876L215.872 28.5515H221.486L222.572 25.4141H229.411L230.071 28.5515H235.025L230.704 7.82997H226.192ZM226.922 13.4285L228.586 21.2041H224.129L226.923 13.4285H226.922Z" fill="#1434CB"/>
</svg>
